<?xml version="1.0" encoding="utf-8"?>
<!-- Generator: Adobe Illustrator 26.0.0, SVG Export Plug-In . SVG Version: 6.00 Build 0)  -->
<svg version="1.1" id="Layer_1" xmlns="http://www.w3.org/2000/svg" xmlns:xlink="http://www.w3.org/1999/xlink" x="0px" y="0px"
	 viewBox="0 0 100 100" style="enable-background:new 0 0 100 100;" xml:space="preserve">
<style type="text/css">
	.st0{fill:#1D284F;}
	.st1{fill:#30BFD1;}
	.st2{fill:#3DC0D3;}
	.st3{fill:#1B264E;}
	.st4{fill:#202B51;}
	.st5{fill:#1B2045;}
	.st6{fill:#F3F3F5;}
	.st7{fill:#D9D9DF;}
	.st8{fill:#DCDBE2;}
	.st9{fill:#EEEEF1;}
	.st10{fill:#101640;}
	.st11{fill:#555B69;}
	.st12{fill:#191919;}
	.st13{fill:#FAFBFC;}
	.st14{fill:#0C93CB;}
	.st15{fill:#181818;}
	.st16{fill:#0E93CB;}
	.st17{fill:#1C1C1C;}
	.st18{fill:#CBEBF7;}
	.st19{fill:#79D0F4;stroke:#79D0F4;stroke-width:4;stroke-miterlimit:10;}
	.st20{fill:#F05666;}
	.st21{fill:#894D9E;}
	.st22{fill:#E04E61;}
	.st23{fill:#3E334D;}
	.st24{fill:#686C82;stroke:#000000;stroke-width:4;stroke-miterlimit:10;}
	.st25{fill:#79D0F4;}
	.st26{fill:#B398C8;}
	.st27{fill:#040505;}
	.st28{fill:#F15E60;}
	.st29{fill:#5AB8E8;}
	.st30{fill:#686C82;}
	.st31{fill:#0E1112;}
	.st32{fill:#0D1314;}
	.st33{fill:#D0E3F4;}
	.st34{fill:#A4CCEB;}
	.st35{fill:#D2E5F6;}
	.st36{fill:#A4CDED;}
	.st37{fill:#81A8D9;}
	.st38{fill:#FBFBFC;}
	.st39{fill:#A1C6E9;}
	.st40{fill:#494747;}
	.st41{fill:#7375B7;}
	.st42{fill:#2E2D2C;}
	.st43{fill:#5F64AD;}
	.st44{fill:#E0DDEB;}
	.st45{fill:#E3E0EF;}
	.st46{fill:#7D7C7C;}
	.st47{fill:#4CBA79;}
	.st48{fill:#D1CEE6;}
	.st49{fill:#EF655A;}
	.st50{fill:#F6B837;}
	.st51{fill:#E6AD24;}
	.st52{fill:#EA5745;}
	.st53{fill:#E1DEEF;}
	.st54{fill:#5C60A6;}
	.st55{fill:#D3D2D2;}
	.st56{fill:#FBFBFB;}
	.st57{fill:#FFFFFF;}
	.st58{fill:#F5F5F4;}
	.st59{fill:#E1E1E0;}
	.st60{fill:#E6E6E5;}
	.st61{fill:#B3B2B2;}
	.st62{fill:#B6B5B5;}
	.st63{fill:#EDEDED;}
	.st64{fill:#D2D1D1;}
	.st65{fill:#EEEEED;}
	.st66{fill:#BAB9B9;}
	.st67{fill:#B9B8B8;}
	.st68{fill:#2D3C44;}
	.st69{fill:#FCFCFC;}
	.st70{fill:#415563;}
	.st71{fill:#F6F6F6;}
	.st72{fill:#384954;}
	.st73{fill:#F4F4F4;}
	.st74{fill:#DEDFDE;}
	.st75{fill:#F1F1F1;}
	.st76{fill:#DADBDB;}
	.st77{fill:#EBECEC;}
	.st78{fill:#D6D8D8;}
	.st79{fill:#505455;}
	.st80{fill:#FDFEFE;}
	.st81{fill:#1379BF;}
	.st82{fill:#56B4E5;}
	.st83{fill:#FDFDFD;}
	.st84{fill:#1379BE;}
	.st85{fill:#F7F7F7;}
	.st86{fill:#4F5456;}
	.st87{fill:#515657;}
	.st88{fill:#4F5354;}
	.st89{fill:#238099;}
	.st90{fill:#247D95;}
	.st91{fill:#24879F;}
	.st92{fill:#288199;}
	.st93{fill:#2487A0;}
	.st94{fill:#1B7891;}
	.st95{fill:#1C7891;}
	.st96{fill:#18758F;}
	.st97{fill:#1E7992;}
	.st98{fill:#1E7A92;}
	.st99{fill:#1D7991;}
	.st100{fill:#FEFEFE;}
	.st101{fill:#FEFDFD;}
	.st102{fill:#FEFEFF;}
	.st103{fill:#F5F7FA;}
	.st104{fill:#0062A2;}
	.st105{fill:#393939;}
	.st106{fill:#BCC1CB;}
	.st107{fill:#8C929D;}
	.st108{fill:#0D3F5D;}
	.st109{fill:#0C3E5D;}
	.st110{fill:#073D5B;}
	.st111{fill:#1C4462;}
	.st112{opacity:0.2;}
	.st113{fill:#E26370;}
	.st114{fill:#34436B;}
	.st115{fill:#DCD9DE;}
	.st116{fill:#FBB146;}
	.st117{fill:#A9B0BB;}
	.st118{fill:#BADDE7;}
	.st119{fill:#48C4D7;}
	.st120{fill:#E3EFF4;}
	.st121{fill:#7DA8C0;}
	.st122{fill:#1A5D7E;}
	.st123{fill:#7EA9C0;}
	.st124{fill:#FCFDFD;}
	.st125{fill:#666E78;}
	.st126{fill:#FEE8D7;}
	.st127{fill:#E4E6EA;}
	.st128{fill:#AAB2BD;}
	.st129{clip-path:url(#SVGID_00000040549939582157809460000004869098195041524894_);}
	.st130{fill:#73CFF3;}
	.st131{fill:#FEFEFD;}
	.st132{fill:#5DBCEA;}
	.st133{fill:#F2F1F1;}
	.st134{fill:#10A2AD;}
	.st135{fill:#7CD1F3;}
	.st136{fill:#D2D1D0;}
	.st137{fill:#CDCCCB;}
	.st138{fill:#F6D7D3;}
	.st139{fill:#F59589;}
	.st140{fill:#FBC154;}
	.st141{fill:#DCC2BD;}
	.st142{fill:#F8F7F6;}
	.st143{fill:#E8D3AE;}
	.st144{fill:#2E2C2A;}
	.st145{fill:#DBC085;}
	.st146{fill:#010101;}
	.st147{fill:#208DC8;}
	.st148{fill:#A77D52;}
	.st149{fill:#40AAD9;}
	.st150{fill:#B2B2B2;}
	.st151{fill:#E1ECF8;}
	.st152{fill:#6C709C;}
	.st153{fill:#777DA2;}
	.st154{fill:#D9E2F2;}
	.st155{fill:#6D719C;}
	.st156{fill:#A0C6E9;}
	.st157{fill:#44B3E6;}
	.st158{fill:#2C3954;}
	.st159{fill:#516975;}
	.st160{fill:#475C65;}
	.st161{fill:#7C8F99;}
	.st162{fill:#90A2AD;}
	.st163{fill:#556E7A;}
	.st164{fill:#56BFED;}
	.st165{fill:#2E96D3;}
	.st166{fill:#3198D4;}
	.st167{fill:#2C95D2;}
	.st168{fill:#DFE4E7;}
	.st169{fill:#41B1E5;}
	.st170{fill:#CDD5DA;}
	.st171{fill:#E8EBED;}
	.st172{fill:#F7F5F7;}
	.st173{fill:#DAE4E8;}
	.st174{fill:#7EB5E2;}
	.st175{fill:#F3F1F3;}
	.st176{fill:#F8C1A8;}
	.st177{fill:#BF6231;}
	.st178{fill:#1F87C9;}
	.st179{fill:#9E4B25;}
	.st180{fill:#31B44A;}
	.st181{fill:#C7E2F6;}
	.st182{fill:#BC6030;}
	.st183{fill:#BB5F30;}
	.st184{fill:#0F354D;}
	.st185{fill:#13364E;}
	.st186{fill:#0E354C;}
	.st187{fill:#A2C4DC;}
	.st188{fill:#F2A866;}
	.st189{fill:#DF9158;}
	.st190{fill:#1F75B5;}
	.st191{fill:#F0D1BE;}
	.st192{fill:#F1B486;}
	.st193{fill:#EBCEBC;}
	.st194{fill:#0E354E;}
	.st195{fill:#1F76B6;}
	.st196{fill:#1A3651;}
	.st197{fill:#1E3953;}
	.st198{fill:#1F3953;}
	.st199{fill:#233C55;}
	.st200{fill:#233B55;}
	.st201{fill:#1D3853;}
	.st202{fill:#203954;}
	.st203{fill:#213B54;}
	.st204{fill:#223B55;}
	.st205{fill:#F9FAFB;}
	.st206{fill:#32A1DA;}
	.st207{fill:#1B3853;}
	.st208{fill:#FAFAFB;}
	.st209{fill:#0B0B0B;}
	.st210{fill:#3B7190;}
	.st211{fill:#447F9E;}
	.st212{fill:#63C081;}
	.st213{fill:#8BCB8D;}
	.st214{fill:#06080A;}
	.st215{fill:#E2E3E2;}
	.st216{fill:#161714;}
	.st217{fill:#41C6ED;}
	.st218{fill:#30B4E8;}
	.st219{fill:#1A6F84;}
	.st220{fill:#437B4F;}
	.st221{clip-path:url(#SVGID_00000170241990933225480760000017212441653399895461_);fill:#73CFF3;}
	.st222{fill:#304457;}
	.st223{fill:#32AA8F;}
	.st224{fill:#4C6072;}
	.st225{fill:none;}
	.st226{fill:#099DD1;}
	.st227{fill:#895529;}
	.st228{fill:#B4B4B4;}
	.st229{fill:#CC2F3B;}
	.st230{fill:#C1282D;}
	.st231{fill:#7D4C28;}
	.st232{fill:#808080;}
	.st233{fill:#85D4EF;}
	.st234{fill:#C9C9C9;}
	.st235{fill:#C3D3DF;}
	.st236{fill:#C2D2DE;}
	.st237{fill:#3994D1;}
	.st238{fill:#3B95D2;}
	.st239{fill:#E9E9E9;}
	.st240{fill:#C2C2C2;}
	.st241{fill:#EDCDB8;}
	.st242{fill:#CCCCCC;}
	.st243{fill:#FEFFFF;}
	.st244{fill:#193651;}
	.st245{fill:#0E1C2F;}
	.st246{fill:#1B2333;}
	.st247{fill:#101724;}
	.st248{fill:#F8F9F9;}
	.st249{fill:#73CFF3;stroke:#1C284F;stroke-width:0.5;stroke-miterlimit:10;}
	.st250{fill:#3DBCE4;}
	.st251{fill:#2A364F;}
	.st252{fill:#29354E;}
	.st253{fill:#293349;}
	.st254{fill:#242D3E;}
	.st255{fill:#2C3446;}
	.st256{fill:#2D3647;}
	.st257{fill:#2D3546;}
	.st258{fill:#2E394F;}
	.st259{fill:#D6DCE3;}
	.st260{fill:#D6DBE3;}
	.st261{fill:#F7F8FA;}
	.st262{fill:#EFF0F2;}
	.st263{fill:#F5F6F7;}
	.st264{fill:#A9D0EF;}
	.st265{fill:#E8EEED;}
	.st266{fill:#FBD9D5;}
	.st267{fill:#A8D0EE;}
	.st268{fill:#5C90AE;}
	.st269{fill:#0E1010;}
	.st270{fill:#E2F3FA;}
	.st271{fill:#2D383D;}
	.st272{fill:#C0E0E7;}
	.st273{fill:#4B565C;}
	.st274{fill:#AAC2CC;}
	.st275{fill:#C3E7ED;}
	.st276{fill:#859FA7;}
	.st277{fill:#9CCDD4;}
	.st278{fill:#080A0A;}
	.st279{fill:#021010;}
	.st280{fill:#050606;}
	.st281{fill:#59C5CC;}
	.st282{fill:#FCD65D;}
	.st283{fill:#F2634D;}
	.st284{fill:#6B9CD2;}
	.st285{fill:#4C7EC0;}
	.st286{fill:#6A9AD0;}
	.st287{fill:#4979B8;}
	.st288{fill:#C5C4C8;}
	.st289{fill:#FAFCFE;}
	.st290{fill:#F3F7FC;}
	.st291{fill:#F7FAFD;}
	.st292{fill:#EE4364;}
	.st293{fill:#C72227;}
	.st294{fill:#C4C2C7;}
	.st295{fill:#FCFCFD;}
	.st296{fill:#F7F7F9;}
	.st297{fill:#F5F5F7;}
	.st298{fill:#A2CAE9;}
	.st299{fill:#FDFDFE;}
	.st300{fill:#A7CFEE;}
	.st301{fill:#E1E1DF;}
	.st302{fill:#B1BFC5;}
	.st303{fill:#DFDFDE;}
	.st304{fill:#EFCFB3;}
	.st305{fill:#FCFBFB;}
	.st306{fill:#EDCDB2;}
	.st307{fill:#A8B0BB;}
	.st308{fill:#F2806F;}
	.st309{fill:#F5D26E;}
	.st310{fill:#C9D1D4;}
	.st311{fill:#FDDB00;}
	.st312{fill:#F0B91A;}
	.st313{fill:#FEDC00;}
	.st314{fill:#2E3245;}
	.st315{fill:#F9FBFB;}
	.st316{fill:#EE4425;}
	.st317{fill:#D6CBC4;}
	.st318{fill:#36B553;}
	.st319{fill:#F8991D;}
	.st320{fill:#495461;}
	.st321{fill:#3BBCEC;}
	.st322{fill:#C42C27;}
	.st323{fill:#0FA54B;}
	.st324{fill:#E67823;}
	.st325{fill:#374351;}
	.st326{fill:#0CA8E0;}
	.st327{fill:#ABA39F;}
	.st328{fill:#F1961F;}
	.st329{fill:#71CEEC;}
	.st330{fill:#ECCCB1;}
	.st331{fill:#E4E4E3;}
	.st332{fill:#EE534A;}
	.st333{fill:#B03D38;}
	.st334{fill:#C1C0C0;}
	.st335{fill:#999999;}
	.st336{fill:#989898;}
	.st337{fill:#818181;}
	.st338{fill:#343636;}
	.st339{fill:#812C29;}
	.st340{fill:#EE544B;}
	.st341{fill:none;stroke:#FFFFFF;stroke-miterlimit:10;}
	.st342{fill:#C0E2F0;}
	.st343{fill:#6F7490;}
	.st344{fill:#525977;}
	.st345{fill:#DFBE78;}
	.st346{fill:#D19550;}
	.st347{fill:#6D728E;}
	.st348{fill:#515775;}
</style>
<g>
	<path class="st27" d="M66.1,3.12c1.05,0.52,1.33,1.38,1.33,2.51c-0.04,6.43-0.01,12.87-0.03,19.3c0,0.72,0.17,0.91,0.89,0.9
		c2.3-0.04,2.25-0.02,2.59-2.32c0.5-3.34,0.99-6.68,1.64-9.98c0.5-2.54,2.67-4.17,5.27-4.18c5.64-0.02,11.28-0.01,16.92,0
		c1.43,0,2.12,0.7,2.13,2.13c0.01,2.26,0.01,4.51,0,6.77c-0.01,1.37-0.71,2.08-2.08,2.08c-3.81,0.01-7.62,0.03-11.43-0.02
		c-0.72-0.01-0.85,0.3-0.94,0.86c-1.01,6.55-2.04,13.1-3.06,19.64c-0.94,6.04-1.87,12.08-2.81,18.12
		c-0.81,5.23-1.63,10.45-2.45,15.68c-0.26,1.65-0.49,3.31-0.85,4.94c-0.52,2.35-2.66,4.05-5.07,4.1c-1.16,0.02-2.32,0.01-3.48,0.01
		c-1.16,0-2.32,0-3.54,0c2.32,4.69,1.77,8.83-2.65,11.84c-3.26,2.22-7.08,1.72-10.11-0.87c-2.91-2.49-3.4-6.13-1.43-10.93
		c-6.98,0-13.96,0-21.06,0c1.22,1.98,1.71,4.08,1.25,6.35c-0.47,2.29-1.68,4.1-3.61,5.39c-2.98,1.99-7.04,1.85-9.66-0.26
		c-3.54-2.84-4.14-6.11-2.09-11.51c-0.93,0-1.83,0-2.74,0c-2.83,0-4.64-1.24-5.65-3.87c-0.05-0.13-0.04-0.31-0.24-0.34
		c0-0.85,0-1.71,0-2.56c0.2-0.02,0.19-0.2,0.24-0.34c1.01-2.63,2.82-3.87,5.65-3.87c10.6,0,21.2,0,31.81,0
		c1.45,0,1.99,0.43,2.29,1.8c-0.3,1.41-0.85,1.85-2.35,1.85c-10.58,0-21.17,0-31.75,0c-1.31,0-2.19,0.74-2.21,1.81
		c-0.02,1.07,0.87,1.85,2.17,1.85c19.55,0,39.1,0,58.65,0c1.3,0,1.93-0.58,2.14-1.88c0.35-2.19,0.72-4.38,1.06-6.57
		c1.36-8.8,2.71-17.6,4.08-26.4c1.38-8.83,2.78-17.65,4.17-26.48c0.23-1.47,0.81-1.98,2.32-1.99c3.69,0,7.38-0.01,11.07,0.01
		c0.52,0,0.78-0.07,0.73-0.68c-0.06-0.76-0.05-1.53,0-2.29c0.03-0.54-0.1-0.72-0.69-0.72C87.72,13.01,82.93,13,78.14,13
		c-1.31,0-1.97,0.57-2.17,1.85c-0.38,2.4-0.74,4.81-1.12,7.21c-1.28,8.2-2.55,16.4-3.84,24.59c-1.44,9.19-2.89,18.37-4.35,27.56
		c-0.27,1.68-0.78,2.11-2.48,2.11c-2.53,0-5.06,0-7.59,0c-1.67,0-2.05-0.28-2.58-1.84c0.48-1.53,0.87-1.82,2.49-1.82
		c1.98,0,3.96-0.03,5.94,0.02c0.65,0.02,0.83-0.24,0.9-0.81c0.14-1.08,0.31-2.17,0.5-3.24c0.19-1.1,0.2-1.09-0.89-1.09
		c-16.73,0-33.47,0-50.2,0c-1.51,0-2.03-0.39-2.33-1.85c-0.4-1.9-0.74-3.81-1.11-5.72c-1.69-8.79-3.37-17.59-5.09-26.38
		c-0.33-1.68-0.48-3.4-1.08-5.02c0-0.49,0-0.98,0-1.46c0.53-0.99,1.36-1.33,2.47-1.3c2.22,0.06,4.45,0,6.67,0.03
		c0.59,0.01,0.76-0.13,0.75-0.74c-0.03-2.86-0.02-5.73-0.01-8.59c0-1.79,0.6-2.39,2.42-2.39c7.98,0,15.97-0.01,23.95,0.02
		c0.78,0,0.94-0.21,0.92-0.95c-0.05-2.47,0.02-4.94-0.04-7.4c-0.03-1.16,0.27-2.05,1.29-2.65C49.75,3.12,57.93,3.12,66.1,3.12z
		 M7.19,29.47c1.7,8.81,3.41,17.54,5.05,26.28c0.14,0.77,0.45,0.82,1.06,0.82c4.05-0.02,8.11-0.01,12.16-0.01
		c1.29,0,2.18,0.77,2.17,1.84c-0.01,1.07-0.9,1.82-2.19,1.82c-3.51,0.01-7.01,0-10.52,0c-0.58,0-1.15,0-1.79,0
		c0.17,0.97,0.38,1.86,0.47,2.76c0.08,0.77,0.44,0.92,1.17,0.92c16.28-0.02,32.56-0.02,48.84-0.02c0.15,0,0.31-0.02,0.46,0
		c0.43,0.06,0.54-0.11,0.61-0.54c0.44-2.94,0.94-5.88,1.4-8.82c1.25-8.02,2.46-16.04,3.75-24.05c0.15-0.92-0.05-1.02-0.87-1.02
		c-20.24,0.02-40.49,0.02-60.73,0.02C7.89,29.47,7.56,29.47,7.19,29.47z M63.73,16.34c0-2.96-0.02-5.91,0.01-8.87
		c0.01-0.57-0.16-0.71-0.72-0.71c-6.1,0.02-12.19,0.02-18.29,0c-0.58,0-0.8,0.12-0.78,0.75c0.05,1.46,0.01,2.93,0.01,4.39
		c0,2.18,0,2.18,2.14,2.2c1.56,0.01,2.24,0.68,2.24,2.21c0.01,2.9,0.02,5.79-0.01,8.69c-0.01,0.61,0.11,0.83,0.78,0.83
		c4.6-0.03,9.2-0.03,13.81,0c0.62,0,0.83-0.13,0.82-0.79C63.71,22.14,63.73,19.24,63.73,16.34z M30.79,17.76
		c-4.45,0-8.9,0.01-13.35-0.01c-0.58,0-0.77,0.13-0.76,0.74c0.04,2.19,0.04,4.39,0,6.58c-0.01,0.6,0.16,0.75,0.75,0.75
		c8.84-0.02,17.68-0.02,26.52,0c0.58,0,0.77-0.13,0.76-0.74c-0.04-2.16-0.05-4.33,0-6.49c0.02-0.69-0.16-0.85-0.85-0.85
		C39.5,17.78,35.14,17.76,30.79,17.76z M14.13,88.38c-0.02,2.55,2.13,4.74,4.68,4.77c2.57,0.04,4.79-2.14,4.82-4.73
		c0.02-2.56-2.18-4.77-4.78-4.77C16.32,83.64,14.15,85.83,14.13,88.38z M58.78,88.44c0.03-2.54-2.1-4.74-4.66-4.79
		c-2.57-0.06-4.79,2.1-4.84,4.7c-0.05,2.54,2.15,4.77,4.75,4.8C56.55,93.18,58.75,91,58.78,88.44z"/>
	<path class="st18" d="M7.19,29.47c0.38,0,0.7,0,1.03,0c20.24,0,40.49,0,60.73-0.02c0.82,0,1.02,0.09,0.87,1.02
		c-1.29,8.01-2.5,16.03-3.75,24.05c-0.46,2.94-0.96,5.88-1.4,8.82c-0.06,0.43-0.18,0.6-0.61,0.54c-0.15-0.02-0.3,0-0.46,0
		c-16.28,0-32.56-0.01-48.84,0.02c-0.73,0-1.09-0.14-1.17-0.92c-0.09-0.9-0.3-1.79-0.47-2.76c0.64,0,1.21,0,1.79,0
		c3.51,0,7.01,0,10.52,0c1.3,0,2.19-0.75,2.19-1.82c0.01-1.06-0.89-1.84-2.17-1.84c-4.05-0.01-8.11-0.01-12.16,0.01
		c-0.61,0-0.91-0.05-1.06-0.82C10.6,47.01,8.89,38.28,7.19,29.47z M31.32,58.36c-0.01,0.98,0.78,1.82,1.75,1.85
		c0.96,0.03,1.9-0.89,1.89-1.85c-0.02-0.94-0.9-1.81-1.84-1.81C32.16,56.56,31.33,57.38,31.32,58.36z"/>
	<path class="st25" d="M43.13,74.47c1.19,0,2.38,0.01,3.58,0.01c0.44,1.32,1.07,1.89,1.98,1.84c0.93-0.06,1.51-0.67,1.76-1.85
		c1.19,0,2.38,0.01,3.58,0.01c0.53,1.57,0.91,1.84,2.58,1.84c2.53,0,5.06,0,7.59,0c1.69,0,2.21-0.43,2.48-2.11
		c1.45-9.19,2.9-18.37,4.35-27.56c1.29-8.2,2.56-16.39,3.84-24.59c0.37-2.4,0.74-4.81,1.12-7.21c0.2-1.28,0.85-1.84,2.17-1.85
		c4.79-0.01,9.58,0.01,14.37-0.02c0.59,0,0.72,0.18,0.69,0.72c-0.05,0.76-0.06,1.53,0,2.29c0.05,0.61-0.21,0.68-0.73,0.68
		c-3.69-0.02-7.38-0.01-11.07-0.01c-1.5,0-2.09,0.51-2.32,1.99c-1.39,8.83-2.79,17.65-4.17,26.48c-1.37,8.8-2.72,17.6-4.08,26.4
		c-0.34,2.19-0.71,4.38-1.06,6.57c-0.21,1.3-0.84,1.88-2.14,1.88c-19.55,0-39.1,0-58.65,0c-1.29,0-2.18-0.78-2.17-1.85
		c0.02-1.07,0.9-1.81,2.21-1.81c10.58,0,21.17,0,31.75,0C42.27,76.32,42.82,75.88,43.13,74.47z"/>
	<path class="st28" d="M63.73,16.34c0,2.9-0.02,5.79,0.02,8.69c0.01,0.66-0.19,0.8-0.82,0.79c-4.6-0.03-9.2-0.03-13.81,0
		c-0.67,0-0.79-0.22-0.78-0.83c0.03-2.9,0.02-5.79,0.01-8.69c0-1.54-0.68-2.2-2.24-2.21c-2.14-0.01-2.14-0.01-2.14-2.2
		c0-1.46,0.03-2.93-0.01-4.39c-0.02-0.63,0.2-0.75,0.78-0.75c6.1,0.02,12.19,0.02,18.29,0c0.56,0,0.72,0.14,0.72,0.71
		C63.71,10.43,63.73,13.39,63.73,16.34z"/>
	<path class="st29" d="M30.79,17.76c4.36,0,8.72,0.02,13.07-0.02c0.68-0.01,0.86,0.16,0.85,0.85c-0.05,2.16-0.04,4.33,0,6.49
		c0.01,0.61-0.18,0.74-0.76,0.74c-8.84-0.02-17.68-0.02-26.52,0c-0.6,0-0.76-0.15-0.75-0.75c0.04-2.19,0.04-4.39,0-6.58
		c-0.01-0.61,0.18-0.75,0.76-0.74C21.89,17.77,26.34,17.76,30.79,17.76z"/>
	<path class="st30" d="M14.13,88.38c0.02-2.55,2.19-4.73,4.72-4.73c2.59,0,4.8,2.21,4.78,4.77c-0.02,2.59-2.24,4.77-4.82,4.73
		C16.26,93.11,14.12,90.92,14.13,88.38z"/>
	<path class="st30" d="M58.78,88.44c-0.03,2.56-2.23,4.73-4.75,4.7c-2.6-0.03-4.8-2.25-4.75-4.8c0.05-2.6,2.28-4.76,4.84-4.7
		C56.68,83.71,58.81,85.9,58.78,88.44z"/>
	<path class="st31" d="M50.45,74.47c-0.25,1.17-0.83,1.79-1.76,1.85c-0.92,0.06-1.54-0.52-1.98-1.84c0.17-0.66,0.39-1.27,1.05-1.61
		C48.92,72.26,50.12,72.97,50.45,74.47z"/>
	<path class="st32" d="M31.32,58.36c0.01-0.98,0.84-1.8,1.8-1.8c0.94,0,1.82,0.87,1.84,1.81c0.02,0.96-0.92,1.88-1.89,1.85
		C32.1,60.18,31.31,59.34,31.32,58.36z"/>
</g>
</svg>
